<?xml version="1.0" standalone="no"?>
<!DOCTYPE svg PUBLIC "-//W3C//DTD SVG 20010904//EN"
 "http://www.w3.org/TR/2001/REC-SVG-20010904/DTD/svg10.dtd">
<svg version="1.0" xmlns="http://www.w3.org/2000/svg"
 width="1125.000000pt" height="1125.000000pt" viewBox="0 0 1125.000000 1125.000000"
 preserveAspectRatio="xMidYMid meet">
<metadata>
Created by potrace 1.14, written by Peter Selinger 2001-2017
</metadata>
<g transform="translate(0.000000,1125.000000) scale(0.100000,-0.100000)"
fill="#000000" stroke="none">
<path d="M5271 11225 c-4 -5 -7 -512 -6 -1125 1 -1108 1 -1115 -20 -1144 -11
-17 -25 -37 -32 -45 -14 -19 -205 -301 -300 -444 l-65 -97 1 -741 0 -740 -530
-530 -529 -529 0 -234 0 -234 -132 -130 c-162 -159 -329 -322 -748 -732 -177
-173 -393 -384 -479 -468 -86 -84 -277 -271 -425 -415 -341 -334 -528 -517
-688 -674 l-126 -125 111 -114 111 -113 30 27 c36 34 126 121 562 548 192 188
412 403 489 479 77 75 275 268 440 430 165 161 356 348 425 415 69 67 266 259
438 428 l312 306 0 235 0 236 530 530 530 530 0 761 0 760 23 31 c12 17 28 39
35 50 41 61 262 389 298 443 24 36 48 70 53 76 5 7 9 496 9 1183 0 1082 -1
1171 -16 1172 -96 6 -295 2 -301 -6z"/>
<path d="M4456 10681 c-1 -3 -2 -751 -1 -1661 l1 -1655 -41 -40 c-23 -22 -95
-89 -160 -150 -64 -60 -137 -128 -160 -150 -24 -22 -100 -94 -171 -160 -70
-66 -162 -152 -203 -191 -42 -40 -92 -86 -111 -104 -146 -135 -299 -278 -454
-425 -65 -61 -91 -85 -300 -280 -65 -60 -125 -117 -134 -126 -13 -15 -18 -15
-49 -3 -79 34 -217 36 -321 5 -39 -12 -121 -51 -142 -69 -152 -128 -211 -242
-213 -412 -2 -135 28 -224 112 -330 42 -53 61 -70 123 -110 109 -72 261 -99
388 -68 55 13 156 59 188 84 43 34 112 108 118 126 3 10 9 18 13 18 10 0 60
114 68 155 9 48 9 189 0 228 -5 23 -21 66 -34 95 l-23 53 72 68 c40 38 89 83
108 101 34 32 242 226 325 305 23 22 86 81 140 130 53 50 121 113 149 140 45
43 217 204 326 305 35 32 233 218 336 315 29 28 101 95 160 150 59 55 130 123
159 150 l51 50 0 1730 -1 1730 -158 1 c-87 0 -159 -2 -161 -5z"/>
<path d="M10589 8704 c-37 -39 -94 -100 -211 -225 -58 -63 -125 -134 -148
-159 -53 -57 -255 -273 -295 -315 -37 -38 -240 -257 -285 -305 -18 -19 -87
-93 -155 -165 -67 -71 -137 -146 -155 -165 -47 -51 -236 -253 -425 -455 -137
-146 -155 -166 -285 -305 -58 -61 -123 -131 -145 -154 -22 -24 -87 -93 -145
-155 -58 -62 -125 -134 -150 -160 -25 -27 -94 -101 -155 -166 -60 -65 -126
-135 -145 -155 -224 -238 -278 -296 -293 -314 -18 -20 -211 -226 -306 -325
l-44 -46 -376 0 -376 0 -6 -40 -5 -40 -8 40 c-10 49 -60 155 -88 187 -11 13
-30 34 -42 48 -12 14 -37 37 -56 51 -303 226 -737 63 -816 -306 -11 -51 -8
-179 6 -219 6 -20 13 -43 14 -50 6 -39 69 -139 122 -192 63 -63 176 -129 245
-142 48 -9 186 -9 234 1 95 18 224 103 293 192 21 27 73 126 79 150 1 6 6 24
12 40 l9 30 1 -36 1 -36 450 0 450 0 84 91 c46 50 106 114 132 142 27 29 92
98 144 154 52 56 120 128 150 160 30 32 100 106 155 165 55 59 120 129 143
154 24 25 92 97 150 160 59 62 127 134 150 160 39 40 180 192 267 286 17 17
85 90 151 161 67 71 137 145 155 165 19 20 84 90 145 155 132 141 167 178 247
264 33 36 116 124 183 195 67 72 137 146 156 166 174 187 248 266 278 298 19
21 91 97 160 171 168 179 158 169 300 321 69 73 157 167 195 208 80 85 85 90
103 113 12 15 5 25 -60 87 -126 119 -151 141 -158 141 -5 0 -18 -12 -31 -26z"/>
<path d="M8868 8499 c-16 -4 -28 -5 -28 -2 0 3 -7 0 -15 -7 -8 -7 -15 -10 -15
-7 0 4 -32 -10 -70 -29 -93 -47 -180 -136 -223 -225 l-32 -68 -585 -1 -585 -1
-43 -52 c-23 -29 -57 -68 -75 -88 -17 -20 -54 -62 -82 -95 -59 -69 -116 -134
-131 -150 -5 -6 -30 -35 -55 -64 -24 -28 -53 -62 -64 -74 -25 -29 -198 -228
-239 -276 -44 -52 -142 -165 -161 -186 -11 -13 -29 -33 -40 -46 -29 -36 -127
-148 -152 -175 -11 -13 -35 -41 -53 -63 -17 -21 -43 -51 -58 -67 -15 -16 -49
-56 -77 -88 -27 -32 -60 -69 -71 -82 l-21 -23 -410 0 c-454 0 -414 6 -470 -67
-12 -15 -36 -44 -53 -63 -17 -19 -47 -56 -67 -82 -21 -27 -41 -48 -45 -48 -4
0 -8 -5 -8 -10 0 -6 -10 -21 -22 -34 -13 -13 -36 -40 -53 -60 -55 -69 -65 -81
-83 -101 -10 -11 -38 -45 -62 -75 -25 -30 -50 -60 -56 -66 -5 -6 -26 -31 -45
-54 -18 -23 -38 -47 -44 -54 -5 -6 -32 -38 -60 -71 -27 -33 -54 -65 -60 -71
-5 -7 -21 -26 -35 -44 -14 -17 -35 -43 -47 -56 -18 -19 -23 -38 -23 -77 -1
-68 -1 -2576 -1 -2603 1 -18 7 -21 46 -19 47 1 53 -7 9 -12 -43 -6 -129 -42
-175 -73 -171 -114 -256 -307 -226 -512 19 -129 108 -268 219 -340 51 -34 122
-65 163 -74 74 -16 128 -19 196 -10 53 6 157 42 180 62 8 8 20 14 26 14 16 0
117 101 150 150 67 102 101 258 78 360 -3 14 -8 38 -10 53 -9 49 -65 153 -111
205 -56 64 -149 127 -222 149 -63 19 -85 31 -50 28 13 -1 29 0 36 3 9 3 12
268 12 1277 l0 1273 61 74 c33 40 71 84 82 98 12 14 53 63 92 110 38 47 72 87
75 90 3 3 59 70 125 150 66 80 122 147 125 150 3 3 24 28 47 56 l42 51 412 0
411 1 24 28 c28 34 114 132 129 148 6 6 34 40 64 76 30 36 60 70 65 75 6 6 36
39 66 75 30 36 64 74 75 86 11 12 35 40 53 62 18 23 46 56 63 74 42 47 54 60
154 178 50 57 97 112 105 121 14 15 84 96 130 149 11 14 41 48 65 75 57 65 72
83 120 140 22 26 49 57 60 69 57 63 131 150 137 161 6 10 119 13 518 13 l510
1 33 -67 c38 -80 138 -185 213 -224 111 -58 233 -76 351 -51 64 13 148 47 171
70 7 7 17 13 21 13 11 0 83 71 115 112 81 107 118 261 94 388 -5 25 -10 53
-11 62 -2 9 -20 51 -41 92 -66 130 -183 222 -333 261 -59 16 -176 18 -225 4z"/>
<path d="M7507 7024 c-1 -1 -24 -4 -52 -7 -195 -23 -368 -164 -425 -347 -21
-68 -21 -69 -23 -159 l-2 -83 -178 -178 c-98 -98 -186 -179 -195 -179 -9 0
-66 0 -127 0 -60 1 -117 1 -125 0 -8 0 -62 0 -120 0 -58 1 -112 1 -120 0 -8 0
-62 0 -120 0 -58 1 -112 1 -120 0 -8 0 -62 0 -120 0 -58 1 -112 1 -120 0 -8 0
-67 0 -130 0 l-115 -1 -45 -42 c-26 -24 -92 -86 -149 -138 -57 -52 -120 -111
-141 -130 -20 -19 -61 -57 -91 -84 l-53 -48 -1 -880 0 -879 60 -54 c49 -43
200 -172 290 -247 56 -46 180 -151 191 -161 7 -7 31 -28 55 -47 23 -19 47 -40
53 -45 6 -6 36 -30 66 -55 51 -43 102 -86 139 -120 9 -8 39 -34 67 -57 l51
-42 0 -791 0 -790 66 -64 c37 -35 67 -62 67 -60 0 3 15 -10 33 -28 33 -33 168
-156 261 -239 28 -24 74 -68 104 -96 31 -29 59 -53 64 -53 13 0 9 -28 -8 -63
-40 -77 -52 -241 -26 -341 31 -116 131 -246 236 -306 95 -54 158 -69 276 -66
110 4 164 19 255 74 100 61 198 190 221 295 1 4 2 8 3 10 7 8 14 82 14 143 0
236 -185 451 -421 491 -90 15 -200 3 -282 -31 -9 -3 -31 9 -56 32 -23 20 -78
71 -124 112 -45 41 -92 84 -104 95 -74 67 -203 184 -227 206 l-29 26 0 795 0
795 -50 44 c-27 24 -68 60 -91 79 -23 19 -53 44 -65 55 -13 11 -42 36 -65 55
-23 19 -79 66 -123 104 -45 37 -106 89 -135 115 -30 25 -73 62 -96 81 -23 19
-63 53 -89 75 -27 22 -58 48 -70 58 -11 10 -43 37 -70 60 -27 23 -63 54 -80
69 -17 15 -33 28 -36 28 -3 0 -4 332 -4 737 l2 737 80 76 c44 41 108 101 143
132 l62 57 621 1 620 0 189 190 c105 105 194 190 199 190 5 0 11 -7 14 -15 4
-8 10 -15 15 -15 4 0 24 -11 44 -25 45 -30 135 -64 189 -72 169 -24 326 27
444 145 200 201 201 522 1 721 -33 34 -64 61 -69 61 -5 0 -15 6 -22 13 -24 24
-147 68 -213 76 -36 4 -66 7 -68 5z"/>
<path d="M885 2809 c-104 -14 -121 -19 -192 -54 -113 -56 -206 -157 -249 -270
-10 -27 -19 -53 -20 -57 -1 -5 -2 -9 -4 -10 -4 -6 -9 -55 -10 -109 -5 -165 79
-334 214 -427 212 -146 475 -124 658 54 33 32 112 146 113 163 1 3 6 22 13 42
20 56 23 79 23 154 1 141 -48 262 -146 361 -85 85 -179 133 -295 149 -24 4
-47 8 -50 9 -3 1 -27 -1 -55 -5z"/>
<path d="M2893 2543 c-112 -22 -184 -63 -271 -151 -57 -59 -114 -165 -130
-247 -22 -105 -1 -248 49 -342 142 -264 479 -355 724 -195 60 39 137 115 164
162 21 36 45 83 48 95 25 97 30 133 27 196 -2 41 -5 81 -7 89 -26 112 -100
225 -201 308 -17 13 -113 64 -131 69 -5 1 -28 7 -50 13 -60 16 -152 18 -222 3z"/>
<path d="M4507 1035 c-1 -2 -27 -5 -57 -8 -355 -36 -563 -432 -392 -750 21
-39 73 -107 107 -139 48 -46 209 -128 223 -113 2 2 14 -1 26 -7 11 -6 52 -11
91 -11 227 2 419 141 493 358 39 114 28 259 -30 382 -23 50 -31 62 -86 124
-53 60 -166 127 -247 146 -31 7 -125 20 -128 18z"/>
</g>
</svg>
